<mxfile host="Electron" modified="2023-12-18T12:38:47.934Z" agent="Mozilla/5.0 (Macintosh; Intel Mac OS X 10_15_7) AppleWebKit/537.36 (KHTML, like Gecko) draw.io/21.2.8 Chrome/112.0.5615.165 Electron/24.2.0 Safari/537.36" etag="8SIP51aiKa6gRkSucGQf" version="21.2.8" type="device">
  <diagram name="Page-1" id="sfjvb50Ahsi_XDQBg_Fw">
    <mxGraphModel dx="954" dy="621" grid="1" gridSize="10" guides="1" tooltips="1" connect="1" arrows="1" fold="1" page="1" pageScale="1" pageWidth="827" pageHeight="1169" math="0" shadow="0">
      <root>
        <mxCell id="0" />
        <mxCell id="1" parent="0" />
        <mxCell id="lySOYRNsz_lYBOXVZ8f3-3" style="edgeStyle=orthogonalEdgeStyle;rounded=0;orthogonalLoop=1;jettySize=auto;html=1;entryX=0.5;entryY=0;entryDx=0;entryDy=0;" edge="1" parent="1" source="lySOYRNsz_lYBOXVZ8f3-1" target="lySOYRNsz_lYBOXVZ8f3-2">
          <mxGeometry relative="1" as="geometry" />
        </mxCell>
        <mxCell id="lySOYRNsz_lYBOXVZ8f3-1" value="Teltonika Modem" style="rounded=1;whiteSpace=wrap;html=1;" vertex="1" parent="1">
          <mxGeometry x="150" y="220" width="120" height="60" as="geometry" />
        </mxCell>
        <mxCell id="lySOYRNsz_lYBOXVZ8f3-5" style="edgeStyle=orthogonalEdgeStyle;rounded=0;orthogonalLoop=1;jettySize=auto;html=1;entryX=0.5;entryY=0;entryDx=0;entryDy=0;" edge="1" parent="1" source="lySOYRNsz_lYBOXVZ8f3-2" target="lySOYRNsz_lYBOXVZ8f3-4">
          <mxGeometry relative="1" as="geometry" />
        </mxCell>
        <mxCell id="lySOYRNsz_lYBOXVZ8f3-2" value="ABB Meter Slave 0x01" style="rounded=1;whiteSpace=wrap;html=1;" vertex="1" parent="1">
          <mxGeometry x="150" y="370" width="120" height="60" as="geometry" />
        </mxCell>
        <mxCell id="lySOYRNsz_lYBOXVZ8f3-4" value="ABB Meter Slave&lt;br&gt;0xNN" style="rounded=1;whiteSpace=wrap;html=1;" vertex="1" parent="1">
          <mxGeometry x="150" y="510" width="120" height="60" as="geometry" />
        </mxCell>
        <mxCell id="lySOYRNsz_lYBOXVZ8f3-6" value="MQTT Broker" style="rounded=1;whiteSpace=wrap;html=1;" vertex="1" parent="1">
          <mxGeometry x="380" y="80" width="120" height="60" as="geometry" />
        </mxCell>
        <mxCell id="lySOYRNsz_lYBOXVZ8f3-7" value="Server" style="rounded=1;whiteSpace=wrap;html=1;" vertex="1" parent="1">
          <mxGeometry x="610" y="230" width="120" height="60" as="geometry" />
        </mxCell>
        <mxCell id="lySOYRNsz_lYBOXVZ8f3-9" value="periodic data" style="shape=flexArrow;endArrow=classic;html=1;rounded=0;" edge="1" parent="1">
          <mxGeometry x="-0.0044" width="50" height="50" relative="1" as="geometry">
            <mxPoint x="510" y="120" as="sourcePoint" />
            <mxPoint x="620" y="220" as="targetPoint" />
            <mxPoint as="offset" />
          </mxGeometry>
        </mxCell>
        <mxCell id="lySOYRNsz_lYBOXVZ8f3-11" value="periodic data" style="shape=flexArrow;endArrow=classic;html=1;rounded=0;" edge="1" parent="1">
          <mxGeometry x="-0.004" width="50" height="50" relative="1" as="geometry">
            <mxPoint x="250" y="210" as="sourcePoint" />
            <mxPoint x="350" y="120" as="targetPoint" />
            <mxPoint as="offset" />
          </mxGeometry>
        </mxCell>
      </root>
    </mxGraphModel>
  </diagram>
</mxfile>
